<svg width="501" height="158" viewBox="0 0 501 158" fill="none" xmlns="http://www.w3.org/2000/svg">
<path d="M175.336 141C166.512 141 158.511 139.131 151.333 135.392C144.154 131.653 138.471 126.194 134.284 119.016C130.096 111.688 128.003 102.64 128.003 91.8719C128.003 81.4032 130.171 72.4301 134.508 64.9525C138.995 57.3253 144.827 51.4927 152.006 47.4548C159.334 43.2673 167.26 41.1736 175.785 41.1736C184.758 41.1736 192.161 43.043 197.993 46.7818C203.826 50.5206 208.312 55.0072 211.453 60.2415L210.107 63.8308L212.35 44.9872H233.213V138.757H210.556V114.978L212.799 120.586C212.201 121.782 210.93 123.502 208.985 125.746C207.041 127.989 204.499 130.307 201.358 132.7C198.218 134.943 194.404 136.887 189.917 138.532C185.58 140.177 180.72 141 175.336 141ZM181.393 122.381C188.871 122.381 195.152 120.436 200.237 116.548C205.471 112.51 208.911 107.052 210.556 100.172V80.8798C208.761 74.7482 205.097 69.6634 199.564 65.6254C194.18 61.5875 187.899 59.5686 180.72 59.5686C175.336 59.5686 170.401 60.9145 165.914 63.6065C161.428 66.1489 157.838 69.8129 155.146 74.5986C152.455 79.2347 151.109 84.6186 151.109 90.7503C151.109 96.7324 152.455 102.116 155.146 106.902C157.988 111.688 161.727 115.501 166.363 118.343C170.999 121.035 176.009 122.381 181.393 122.381Z" fill="#F0F0F0"/>
<path d="M261.887 44.9872L264.13 71.9067L263.233 68.3174C265.775 62.6344 269.29 57.7739 273.776 53.736C278.412 49.6981 283.198 46.6323 288.133 44.5385C293.218 42.2952 297.48 41.1736 300.92 41.1736L299.798 63.6065C292.769 63.1578 286.563 64.5038 281.179 67.6444C275.945 70.785 271.832 74.9725 268.841 80.2068C265.85 85.4412 264.354 91.0494 264.354 97.0315V138.757H241.697V44.9872H261.887Z" fill="#F0F0F0"/>
<path d="M372.993 130.008C368.805 133.448 363.72 136.14 357.738 138.084C351.906 140.028 345.998 141 340.016 141C329.847 141 320.799 138.981 312.873 134.943C305.096 130.905 299.039 125.222 294.702 117.894C290.365 110.566 288.196 101.892 288.196 91.8719C288.196 81.7024 290.514 72.9535 295.151 65.6254C299.787 58.2974 305.844 52.6891 313.321 48.8008C320.948 44.7628 329.099 42.7439 337.773 42.7439C345.55 42.7439 352.354 43.7908 358.187 45.8845C364.169 47.9782 369.329 50.8945 373.666 54.6333L362.449 69.2147C359.907 67.121 356.691 65.2516 352.803 63.6065C348.915 61.9614 344.578 61.1389 339.792 61.1389C334.408 61.1389 329.473 62.4848 324.986 65.1768C320.649 67.8687 317.21 71.5328 314.667 76.1689C312.125 80.805 310.854 86.0394 310.854 91.8719C310.854 97.5549 312.125 102.714 314.667 107.351C317.359 111.987 321.023 115.651 325.659 118.343C330.445 121.035 335.829 122.381 341.811 122.381C345.699 122.381 349.289 121.782 352.579 120.586C356.018 119.39 359.01 117.819 361.552 115.875L372.993 130.008Z" fill="#F0F0F0"/>
<path d="M374.535 44.9872H397.192V138.757H374.535V44.9872Z" fill="#F0F0F0"/>
<path d="M451.638 141C440.87 141 431.598 138.906 423.821 134.719C416.045 130.382 410.063 124.474 405.875 116.997C401.688 109.37 399.594 100.77 399.594 91.199C399.594 81.9267 401.912 73.5517 406.548 66.0741C411.334 58.4469 417.69 52.39 425.616 47.9035C433.542 43.4169 442.366 41.1736 452.087 41.1736C464.649 41.1736 475.043 44.8376 483.269 52.1657C491.643 59.3442 497.252 69.5138 500.093 82.6744L423.597 109.145L418.213 96.1342L479.679 73.7013L474.968 76.8419C473.174 72.0562 470.332 67.9435 466.444 64.5038C462.555 60.9145 457.246 59.1199 450.516 59.1199C442.142 59.1199 435.262 62.0362 429.878 67.8687C424.644 73.5517 422.027 80.8798 422.027 89.853C422.027 99.4243 424.868 107.126 430.551 112.959C436.234 118.791 443.413 121.708 452.087 121.708C456.125 121.708 460.013 121.035 463.752 119.689C467.491 118.193 471.005 116.249 474.295 113.856L484.615 130.681C479.829 133.821 474.52 136.364 468.687 138.308C463.004 140.103 457.321 141 451.638 141Z" fill="#F0F0F0"/>
<path d="M6.00009 82.3796L52.9007 109.061C53.2096 109.237 53.5885 109.236 53.896 109.058L99.5006 82.6685C99.8095 82.4897 99.9998 82.1599 99.9998 81.803L100.001 59M100.001 59L53.9216 30.5064C53.6016 30.3085 53.1977 30.307 52.8762 30.5024L7.41927 58.1376C6.7755 58.529 6.77933 59.4647 7.42629 59.8508L52.8833 86.9789C53.2013 87.1687 53.5981 87.1672 53.9146 86.9751L100.001 59ZM7.49081 103.84L52.9043 129.422C53.2113 129.595 53.5866 129.594 53.8923 129.419L98.5025 103.858C99.1692 103.476 99.9997 103.957 99.9997 104.726V123.317C99.9997 123.669 99.8142 123.996 99.5114 124.176L53.9068 151.341C53.5937 151.528 53.204 151.529 52.8896 151.345L6.49465 124.175C6.18827 123.995 6 123.667 6 123.312V104.711C6 103.946 6.82419 103.464 7.49081 103.84Z" stroke="url(#paint0_linear_69_31)" stroke-width="12" stroke-linecap="round" stroke-linejoin="round"/>
<path d="M368 18.1593C368 13.062 369.855 8.81416 373.564 5.41593C377.491 1.80531 381.746 0 386.328 0C390.691 0 394.728 1.80531 398.437 5.41593C402.146 8.81416 404 13.062 404 18.1593C404 23.469 402.146 27.823 398.437 31.2212C394.728 34.4071 390.691 36 386.328 36C381.746 36 377.491 34.4071 373.564 31.2212C369.855 27.823 368 23.469 368 18.1593Z" fill="url(#paint1_linear_69_31)"/>
<defs>
<linearGradient id="paint0_linear_69_31" x1="6" y1="90.9196" x2="100.001" y2="90.9196" gradientUnits="userSpaceOnUse">
<stop stop-color="#FCAE1E"/>
<stop offset="1" stop-color="#FF8D01"/>
</linearGradient>
<linearGradient id="paint1_linear_69_31" x1="368" y1="18" x2="404" y2="18" gradientUnits="userSpaceOnUse">
<stop stop-color="#FCAE1E"/>
<stop offset="1" stop-color="#FF8D01"/>
</linearGradient>
</defs>
</svg>
