<svg width="501" height="158" viewBox="0 0 501 158" fill="none" xmlns="http://www.w3.org/2000/svg">
<path d="M175.336 141C166.512 141 158.511 139.131 151.333 135.392C144.154 131.653 138.471 126.194 134.284 119.016C130.096 111.688 128.002 102.64 128.002 91.8719C128.002 81.4032 130.171 72.4301 134.508 64.9525C138.995 57.3253 144.827 51.4927 152.006 47.4548C159.334 43.2673 167.26 41.1736 175.785 41.1736C184.758 41.1736 192.161 43.043 197.993 46.7818C203.826 50.5206 208.312 55.0072 211.453 60.2415L210.107 63.8308L212.35 44.9872H233.213V138.757H210.555V114.978L212.799 120.586C212.201 121.782 210.929 123.502 208.985 125.746C207.041 127.989 204.499 130.307 201.358 132.7C198.217 134.943 194.404 136.887 189.917 138.532C185.58 140.177 180.72 141 175.336 141ZM181.393 122.381C188.87 122.381 195.152 120.436 200.236 116.548C205.471 112.51 208.91 107.052 210.555 100.172V80.8798C208.761 74.7482 205.097 69.6634 199.563 65.6254C194.179 61.5875 187.898 59.5686 180.72 59.5686C175.336 59.5686 170.401 60.9145 165.914 63.6065C161.427 66.1489 157.838 69.8129 155.146 74.5986C152.454 79.2347 151.108 84.6186 151.108 90.7503C151.108 96.7324 152.454 102.116 155.146 106.902C157.988 111.688 161.727 115.501 166.363 118.343C170.999 121.035 176.009 122.381 181.393 122.381Z" fill="#212121"/>
<path d="M261.887 44.9872L264.13 71.9067L263.232 68.3174C265.775 62.6344 269.289 57.7739 273.776 53.736C278.412 49.6981 283.198 46.6323 288.133 44.5385C293.218 42.2952 297.48 41.1736 300.92 41.1736L299.798 63.6065C292.769 63.1578 286.563 64.5038 281.179 67.6444C275.944 70.785 271.832 74.9725 268.841 80.2068C265.85 85.4412 264.354 91.0494 264.354 97.0315V138.757H241.697V44.9872H261.887Z" fill="#212121"/>
<path d="M372.992 130.008C368.805 133.448 363.72 136.14 357.738 138.084C351.906 140.028 345.998 141 340.016 141C329.847 141 320.799 138.981 312.872 134.943C305.096 130.905 299.039 125.222 294.702 117.894C290.365 110.566 288.196 101.892 288.196 91.8719C288.196 81.7024 290.514 72.9535 295.15 65.6254C299.786 58.2974 305.843 52.6891 313.321 48.8008C320.948 44.7628 329.099 42.7439 337.773 42.7439C345.55 42.7439 352.354 43.7908 358.187 45.8845C364.169 47.9782 369.328 50.8945 373.665 54.6333L362.449 69.2147C359.907 67.121 356.691 65.2516 352.803 63.6065C348.914 61.9614 344.577 61.1389 339.792 61.1389C334.408 61.1389 329.473 62.4848 324.986 65.1768C320.649 67.8687 317.209 71.5328 314.667 76.1689C312.125 80.805 310.853 86.0394 310.853 91.8719C310.853 97.5549 312.125 102.714 314.667 107.351C317.359 111.987 321.023 115.651 325.659 118.343C330.445 121.035 335.829 122.381 341.811 122.381C345.699 122.381 349.288 121.782 352.579 120.586C356.018 119.39 359.009 117.819 361.552 115.875L372.992 130.008Z" fill="#212121"/>
<path d="M374.535 44.9872H397.192V138.757H374.535V44.9872Z" fill="#212121"/>
<path d="M451.638 141C440.87 141 431.598 138.906 423.821 134.719C416.044 130.382 410.062 124.474 405.875 116.997C401.687 109.37 399.594 100.77 399.594 91.199C399.594 81.9267 401.912 73.5517 406.548 66.0741C411.333 58.4469 417.689 52.39 425.616 47.9035C433.542 43.4169 442.366 41.1736 452.087 41.1736C464.649 41.1736 475.043 44.8376 483.268 52.1657C491.643 59.3442 497.251 69.5138 500.093 82.6744L423.597 109.145L418.213 96.1342L479.679 73.7013L474.968 76.8419C473.173 72.0562 470.332 67.9435 466.444 64.5038C462.555 60.9145 457.246 59.1199 450.516 59.1199C442.141 59.1199 435.262 62.0362 429.878 67.8687C424.644 73.5517 422.026 80.8798 422.026 89.853C422.026 99.4243 424.868 107.126 430.551 112.959C436.234 118.791 443.412 121.708 452.087 121.708C456.124 121.708 460.013 121.035 463.752 119.689C467.49 118.193 471.005 116.249 474.295 113.856L484.614 130.681C479.829 133.821 474.519 136.364 468.687 138.308C463.004 140.103 457.321 141 451.638 141Z" fill="#212121"/>
<path d="M5.9996 82.3796L52.9002 109.061C53.2091 109.237 53.588 109.236 53.8955 109.058L99.5001 82.6684C99.809 82.4897 99.9993 82.1598 99.9993 81.8029L100 59M100 59L53.9211 30.5064C53.6011 30.3085 53.1972 30.307 52.8757 30.5024L7.41879 58.1376C6.77502 58.529 6.77885 59.4647 7.4258 59.8508L52.8828 86.9789C53.2008 87.1687 53.5976 87.1672 53.9142 86.975L100 59ZM76.6989 137.764L99.5109 124.176C99.8137 123.995 99.9992 123.669 99.9992 123.317V104.725C99.9992 103.957 99.1687 103.476 98.502 103.858L53.8918 129.419C53.5861 129.594 53.2108 129.595 52.9038 129.422L7.49032 103.84C6.82371 103.464 5.99951 103.946 5.99951 104.711V123.312C5.99951 123.667 6.18778 123.995 6.49416 124.175L52.8892 151.345C53.2036 151.529 53.5932 151.528 53.9063 151.341L76.6989 137.764Z" stroke="url(#paint0_linear_65_10)" stroke-width="12" stroke-linecap="round" stroke-linejoin="round"/>
<path d="M368 18.1593C368 13.062 369.855 8.81416 373.564 5.41593C377.491 1.80531 381.745 0 386.327 0C390.691 0 394.727 1.80531 398.436 5.41593C402.145 8.81416 404 13.062 404 18.1593C404 23.469 402.145 27.823 398.436 31.2212C394.727 34.4071 390.691 36 386.327 36C381.745 36 377.491 34.4071 373.564 31.2212C369.855 27.823 368 23.469 368 18.1593Z" fill="url(#paint1_linear_65_10)"/>
<defs>
<linearGradient id="paint0_linear_65_10" x1="5.99951" y1="90.9138" x2="100" y2="90.9138" gradientUnits="userSpaceOnUse">
<stop stop-color="#FCAE1E"/>
<stop offset="1" stop-color="#FF8D01"/>
</linearGradient>
<linearGradient id="paint1_linear_65_10" x1="368" y1="18" x2="404" y2="18" gradientUnits="userSpaceOnUse">
<stop stop-color="#FCAE1E"/>
<stop offset="1" stop-color="#FF8D01"/>
</linearGradient>
</defs>
</svg>
