<svg width="106" height="134" viewBox="0 0 106 134" fill="none" xmlns="http://www.w3.org/2000/svg">
<path d="M6.00009 58.3796L52.9007 85.0614C53.2096 85.2371 53.5885 85.2357 53.896 85.0578L99.5006 58.6685C99.8095 58.4897 99.9998 58.1599 99.9998 57.803L100.001 35M100.001 35L53.9216 6.50641C53.6016 6.30854 53.1977 6.30701 52.8762 6.50245L7.41927 34.1376C6.7755 34.529 6.77933 35.4647 7.42629 35.8508L52.8833 62.9789C53.2013 63.1687 53.5981 63.1672 53.9146 62.9751L100.001 35ZM7.49081 79.8398L52.9043 105.422C53.2113 105.595 53.5866 105.594 53.8923 105.419L98.5025 79.8578C99.1692 79.4759 99.9997 79.9572 99.9997 80.7255V99.3167C99.9997 99.6691 99.8142 99.9955 99.5114 100.176L53.9068 127.341C53.5937 127.528 53.204 127.529 52.8896 127.345L6.49465 100.175C6.18827 99.9953 6 99.6668 6 99.3118V80.7111C6 79.946 6.82419 79.4643 7.49081 79.8398Z" stroke="url(#paint0_linear_69_30)" stroke-width="12" stroke-linecap="round" stroke-linejoin="round"/>
<defs>
<linearGradient id="paint0_linear_69_30" x1="6" y1="66.9196" x2="100.001" y2="66.9196" gradientUnits="userSpaceOnUse">
<stop stop-color="#FCAE1E"/>
<stop offset="1" stop-color="#FF8D01"/>
</linearGradient>
</defs>
</svg>
